<svg width="25" height="20" viewBox="0 0 25 20" xmlns="http://www.w3.org/2000/svg" focusable="false" class="inline-svg icon-svg icon-twitter"> <path d="M24.2509 2.37336C23.3938 2.75341 22.4719 3.01046 21.505 3.12525C22.4922 2.5338 23.2498 1.59794 23.6074 0.480977C22.6836 1.02894 21.6601 1.42646 20.5716 1.64072C19.6996 0.712 18.4571 0.131592 17.0813 0.131592C14.4417 0.131592 12.3008 2.27247 12.3008 4.91211C12.3008 5.28681 12.3432 5.65153 12.4252 6.00163C8.45222 5.80233 4.92949 3.89925 2.5715 1.00612C2.16008 1.71203 1.92406 2.5338 1.92406 3.40975C1.92406 5.06791 2.76865 6.53176 4.05068 7.38883C3.26742 7.36423 2.52978 7.14925 1.88556 6.79024C1.8852 6.81056 1.8852 6.83088 1.8852 6.85085C1.8852 9.16713 3.53373 11.0991 5.72024 11.538C5.31952 11.6478 4.89634 11.7059 4.46103 11.7059C4.15229 11.7059 3.85317 11.6763 3.56154 11.6207C4.16976 13.5195 5.93487 14.9017 8.02726 14.9405C6.39085 16.2229 4.32983 16.9869 2.08949 16.9869C1.70445 16.9869 1.32298 16.9645 0.949707 16.9199C3.0642 18.2768 5.57764 19.0679 8.27717 19.0679C17.0703 19.0679 21.879 11.7836 21.879 5.46578C21.879 5.25865 21.8743 5.05222 21.8651 4.84758C22.7998 4.17377 23.6102 3.33204 24.2509 2.37336Z"></path> </svg>